<svg xmlns="http://www.w3.org/2000/svg" xml:space="preserve" width="1593px" height="1605px" version="1.1" style="shape-rendering:geometricPrecision; text-rendering:geometricPrecision; image-rendering:optimizeQuality; fill-rule:evenodd; clip-rule:evenodd"
viewBox="0 0 1593.03 1604.28"
 xmlns:xlink="http://www.w3.org/1999/xlink"
 xmlns:xodm="http://www.corel.com/coreldraw/odm/2003">
    <defs>
    <style>
    
        .fil0 {
            fill: black;
            fill-rule:nonzero;
        }
        
    </style>
    </defs>
    <g id="Camada_x0020_1">
    <metadata id="CorelCorpID_0Corel-Layer"/>
    <path class="fil0" d="M885.15 1207.12c269.96,64.26 364.95,-166.64 317.36,-252.82 -19.07,-34.4 -190.38,-100.46 -198.71,-103.66 -73.59,-26.79 -100.78,23.2 -151.78,88.99 -97.91,-48.99 -163.57,-87.59 -231.03,-197.3 3.8,-4.74 8.87,-10.34 12.67,-14.6 23.59,-26.4 67.79,-75.59 37.66,-135.78 -25.33,-50.46 -37.93,-85.65 -47.19,-111.45 -26.87,-74.72 -47.33,-94.99 -139.85,-94.99 -96.32,0 -171.04,126.59 -171.04,235.57 0,237.9 319.82,525.85 571.91,586.04l0 0zm-400.87 -721.62c20,0 30.13,0.67 35.2,1.47 10.79,22.86 21.73,70.59 61.99,144.84 -6.27,23.4 -95.26,78.26 -54,149.18 84.32,143.18 168.71,192.84 289.63,252.96 80.52,36.4 106.25,-29.53 157.31,-87.45 23.66,9.6 103.51,44.93 138.58,62.66 -3.14,69.05 -69.79,132.78 -204.64,100.65 -231.43,-55.26 -495.19,-315.62 -495.19,-488.8 0.06,-65.85 46.26,-135.51 71.12,-135.51l0 0z"/>
    <path class="fil0" d="M2.15 1541.01c-8.73,31.59 14.94,63.25 48.2,63.25 11.99,0 -7.6,3.07 389.8,-99.98 161.78,82.39 284.76,79.79 363.28,87.19 703.56,0 1048.18,-858.07 563.98,-1357.33 -663.7,-641.5 -1697.34,155.71 -1264.81,941.66l-100.45 365.21zm1285.68 -1244.61c11.53,21.06 342.28,319.35 158.1,765.08 -113.38,274.62 -375,443.87 -668.16,428 -238.5,-13.26 -300.22,-98.45 -344.15,-86.79l-312.15 81.32 82.99 -301.55c3.6,-12.93 1.8,-26.73 -4.87,-38.33 -398.81,-688.16 502.99,-1395.72 1088.24,-847.74l0 0.01z"/>
    </g>
</svg>