<svg version="1.1" id="Слой_1" xmlns="http://www.w3.org/2000/svg"
    xmlns:xlink="http://www.w3.org/1999/xlink" x="0px" y="0px" viewBox="0 0 512 512"
    style="enable-background:new 0 0 512 512;" xml:space="preserve">
    <style type="text/css">
        .st0 {
            fill: #ffffff;
        }
    </style>
    <path class="st0"
        d="M256,512C114.8,512,0,397.2,0,256S114.8,0,256,0s256,114.8,256,256S397.2,512,256,512z M256,21.3
        C126.6,21.3,21.3,126.6,21.3,256S126.6,490.7,256,490.7S490.7,385.4,490.7,256S385.4,21.3,256,21.3z" />
    <path class="st0 st1"
        d="M224,384c-1.4,0-2.8-0.3-4.1-0.8c-4-1.6-6.6-5.5-6.6-9.9v-64c0-2.8,1.1-5.5,3.1-7.6l50.3-50.3l-80.2,45.8
        c-3.4,2-7.7,1.9-11-0.3l-64-40.8c-3.4-2.2-5.3-6-4.9-10c0.4-4,3-7.4,6.7-8.9l277.3-108.5c3.6-1.4,7.7-0.7,10.7,1.7
        c3,2.5,4.4,6.3,3.7,10.2l-42.7,234.7c-0.6,3.3-2.7,6.1-5.7,7.6c-3,1.5-6.5,1.5-9.5,0l-78.5-39.2l-37.2,37.2
        C229.5,382.9,226.8,384,224,384z M266.7,320c1.6,0,3.2,0.4,4.8,1.1l72.6,36.3l36.7-201.9l-240,93.9l40.9,26.1l143.7-82.1
        c4.7-2.6,10.5-1.5,13.8,2.8c3.2,4.2,2.8,10.2-0.9,14L234.7,313.8v33.8l24.4-24.4C261.2,321.1,263.9,320,266.7,320z" />
</svg>