<svg xmlns="http://www.w3.org/2000/svg" xml:space="preserve" width="262px" height="262px" version="1.1"
    style="shape-rendering:geometricPrecision; text-rendering:geometricPrecision; image-rendering:optimizeQuality; fill-rule:evenodd; clip-rule:evenodd"
    viewBox="0 0 26200 26200" xmlns:xlink="http://www.w3.org/1999/xlink">
    <defs>
        <style type="text/css">
            .fil0 {
                fill: #ffffff;
                fill-rule: nonzero
            }
        </style>
    </defs>
    <g id="Слой_x0020_1">
        <metadata id="CorelCorpID_0Corel-Layer" />
        <path class="fil0"
            d="M13100 0c3617,0 6892,1466 9263,3837 2371,2371 3837,5646 3837,9263 0,3617 -1466,6892 -3837,9263 -2371,2371 -5646,3837 -9263,3837 -3617,0 -6892,-1466 -9263,-3837 -2371,-2371 -3837,-5646 -3837,-9263 0,-3617 1466,-6892 3837,-9263 2371,-2371 5646,-3837 9263,-3837zm4501 8312c397,0 718,321 718,718 0,397 -321,718 -718,718 -397,0 -718,-321 -718,-718 0,-397 321,-718 718,-718zm-4490 556c1165,0 2221,473 2985,1237 764,764 1236,1819 1236,2985 0,1166 -472,2221 -1236,2985 -764,764 -1820,1237 -2985,1237 -1166,0 -2222,-473 -2985,-1237 -764,-764 -1237,-1819 -1237,-2985 0,-1166 473,-2221 1237,-2985 763,-764 1819,-1237 2985,-1237zm2359 1863c-604,-604 -1438,-977 -2359,-977 -922,0 -1756,373 -2360,977 -603,603 -977,1438 -977,2359 0,921 374,1756 977,2359 604,604 1438,977 2360,977 921,0 1755,-373 2359,-977 603,-603 977,-1438 977,-2359 0,-921 -374,-1756 -977,-2359zm-6950 -5166l9270 0c771,0 1473,315 1980,823 508,508 824,1209 824,1980l0 9270c0,772 -316,1473 -824,1980 -507,508 -1209,824 -1980,824l-9270 0c-771,0 -1472,-316 -1980,-824 -508,-507 -823,-1208 -823,-1980l0 -9270c0,-771 315,-1472 823,-1980 508,-508 1209,-823 1980,-823zm9270 885l-9270 0c-527,0 -1006,216 -1354,564 -348,348 -564,827 -564,1354l0 9270c0,527 216,1007 564,1355 348,347 827,563 1354,563l9270 0c527,0 1007,-216 1355,-563 347,-348 563,-828 563,-1355l0 -9270c0,-527 -216,-1006 -563,-1354 -348,-348 -828,-564 -1355,-564zm4156 -2196c-2264,-2263 -5392,-3664 -8846,-3664 -3454,0 -6582,1401 -8846,3664 -2263,2264 -3664,5392 -3664,8846 0,3454 1401,6582 3664,8846 2264,2263 5392,3664 8846,3664 3454,0 6582,-1401 8846,-3664 2263,-2264 3664,-5392 3664,-8846 0,-3454 -1401,-6582 -3664,-8846z" />
    </g>
</svg>