<svg width="81" height="39" viewBox="0 0 81 39" fill="none" xmlns="http://www.w3.org/2000/svg">
<path d="M41.5541 3.71031C41.5857 6.65274 41.573 7.82254 41.4909 9.32247C41.4403 10.3631 41.3835 11.2243 41.3771 11.2315C41.3645 11.2386 39.0139 11.3606 36.1451 11.5114C28.872 11.8774 17.2388 12.473 15.994 12.5376L14.964 12.595L13.9087 11.6405C13.3337 11.1095 12.8345 10.6573 12.8029 10.6214C12.7777 10.5927 12.6892 10.0545 12.6134 9.42294L12.4744 8.28903L11.7793 8.20291C11.4001 8.15985 10.9704 8.11679 10.8251 8.11679C10.5724 8.10961 10.5534 8.12396 10.5534 8.2962C10.5534 8.43256 10.5281 8.47562 10.4586 8.43974C10.4081 8.41821 8.86624 7.03311 7.02743 5.36094L3.69736 2.31804L2.13026 2.49745C1.27089 2.6051 0.569485 2.70557 0.569485 2.73428C0.569485 2.76299 1.83327 5.18153 3.38141 8.10961C4.92955 11.0377 6.19333 13.4419 6.19333 13.4562C6.19333 13.4706 6.02904 13.4993 5.82684 13.528C4.80317 13.65 4.03226 13.894 3.91852 14.138C3.8806 14.2098 3.85533 14.4897 3.85533 14.7624C3.86165 15.5877 4.13336 16.0398 4.85372 16.413C5.03065 16.5135 5.1823 16.5996 5.1823 16.6068C5.1823 16.6211 4.01962 17.468 2.59154 18.4871C1.16346 19.5062 0.000781008 20.3817 0.000781008 20.432C0.000781008 20.554 -0.087684 20.554 1.61843 20.3458L3.0781 20.1664L5.7826 18.9464L8.49343 17.7192L9.3528 17.9704C10.7619 18.3866 16.5437 19.8578 17.441 20.0301C17.9023 20.1162 20.0002 20.2812 22.3382 20.4176C30.7677 20.9056 32.7392 21.0492 34.0598 21.2429C34.5653 21.3219 35.0898 21.3936 35.2225 21.4008L35.4689 21.4223L34.856 22.3194C33.2384 24.6805 34.1167 23.8409 25.5609 31.1611C21.3588 34.7566 17.8644 37.7493 17.8012 37.821C17.6938 37.9359 17.6938 37.943 17.8265 38.1368C18.1172 38.5602 18.8502 38.7325 19.4947 38.5315C20.1708 38.3234 24.038 35.8618 32.6381 30.1779L35.9239 28.0033L37.788 28.3909C40.4483 28.9435 41.6362 29.0942 44.1764 29.1803C44.96 29.209 45.7056 29.209 45.832 29.1803C46.3122 29.0799 46.6282 28.4985 46.8241 27.3646C47.0642 25.9724 46.7166 24.6805 45.9836 24.2499C45.4781 23.9485 44.2459 23.9988 42.0596 24.4078C41.4403 24.5227 40.9159 24.6088 40.9095 24.5944C40.8969 24.5801 41.8005 23.8696 42.9253 23.0227L44.96 21.4798L45.8762 21.4367C47.1084 21.3865 48.7008 21.0204 51.2979 20.2023C51.8413 20.0372 55.342 19.8722 63.3481 19.6282C71.6511 19.3842 72.8833 19.3267 73.6795 19.1545C75.8343 18.6808 78.7852 17.712 79.7583 17.1522C80.2639 16.858 80.6051 16.5494 80.7315 16.2695C80.8389 16.0398 80.8262 15.5805 80.6872 14.9562C80.5419 14.2959 79.9163 13.7648 78.6399 13.1979C78.2292 13.0113 77.7363 12.7242 77.4393 12.4946C75.9986 11.375 75.6384 11.1382 74.8359 10.8152C73.926 10.442 72.2514 10.1908 69.4142 10.0043L67.5818 9.88225L60.4414 10.2554C56.5173 10.4564 52.0688 10.6932 50.5586 10.7722C49.0483 10.8511 47.8098 10.9013 47.8035 10.8942C47.7972 10.8798 47.6518 10.4349 47.4749 9.90378C47.298 9.3727 46.5208 7.04029 45.7498 4.7294L44.347 0.523865L43.0137 0.258327C42.2744 0.114796 41.6425 -3.05176e-05 41.5983 -3.05176e-05C41.5351 -3.05176e-05 41.5288 0.832462 41.5541 3.71031Z" fill="#316D97"/>
</svg>
