<svg width="81" height="39" viewBox="0 0 81 39" fill="none" xmlns="http://www.w3.org/2000/svg">
<path d="M41.5541 3.71034C41.5857 6.65277 41.573 7.82257 41.4909 9.3225C41.4403 10.3631 41.3835 11.2243 41.3771 11.2315C41.3645 11.2387 39.0139 11.3607 36.1451 11.5114C28.872 11.8774 17.2388 12.4731 15.994 12.5376L14.964 12.5951L13.9087 11.6406C13.3337 11.1095 12.8345 10.6574 12.8029 10.6215C12.7777 10.5928 12.6892 10.0545 12.6134 9.42297L12.4744 8.28906L11.7793 8.20294C11.4001 8.15988 10.9704 8.11682 10.8251 8.11682C10.5724 8.10964 10.5534 8.12399 10.5534 8.29623C10.5534 8.43259 10.5281 8.47565 10.4586 8.43977C10.4081 8.41824 8.86624 7.03314 7.02743 5.36097L3.69736 2.31807L2.13026 2.49748C1.27089 2.60513 0.569485 2.7056 0.569485 2.73431C0.569485 2.76302 1.83327 5.18156 3.38141 8.10964C4.92955 11.0377 6.19333 13.4419 6.19333 13.4563C6.19333 13.4706 6.02904 13.4993 5.82684 13.528C4.80317 13.65 4.03226 13.894 3.91852 14.138C3.8806 14.2098 3.85533 14.4897 3.85533 14.7624C3.86165 15.5877 4.13336 16.0399 4.85372 16.4131C5.03065 16.5135 5.1823 16.5996 5.1823 16.6068C5.1823 16.6212 4.01962 17.468 2.59154 18.4871C1.16346 19.5062 0.000781008 20.3818 0.000781008 20.432C0.000781008 20.554 -0.087684 20.554 1.61843 20.3459L3.0781 20.1665L5.7826 18.9464L8.49343 17.7192L9.3528 17.9704C10.7619 18.3866 16.5437 19.8579 17.441 20.0301C17.9023 20.1162 20.0002 20.2813 22.3382 20.4176C30.7677 20.9056 32.7392 21.0492 34.0598 21.243C34.5653 21.3219 35.0898 21.3937 35.2225 21.4008L35.4689 21.4224L34.856 22.3195C33.2384 24.6806 34.1167 23.8409 25.5609 31.1611C21.3588 34.7566 17.8644 37.7493 17.8012 37.8211C17.6938 37.9359 17.6938 37.9431 17.8265 38.1368C18.1172 38.5603 18.8502 38.7325 19.4947 38.5316C20.1708 38.3234 24.038 35.8618 32.6381 30.1779L35.9239 28.0034L37.788 28.3909C40.4483 28.9435 41.6362 29.0942 44.1764 29.1804C44.96 29.2091 45.7056 29.2091 45.832 29.1804C46.3122 29.0799 46.6282 28.4986 46.8241 27.3647C47.0642 25.9724 46.7166 24.6806 45.9836 24.25C45.4781 23.9486 44.2459 23.9988 42.0596 24.4079C41.4403 24.5227 40.9159 24.6088 40.9095 24.5945C40.8969 24.5801 41.8005 23.8696 42.9253 23.0228L44.96 21.4798L45.8762 21.4367C47.1084 21.3865 48.7008 21.0205 51.2979 20.2023C51.8413 20.0373 55.342 19.8722 63.3481 19.6282C71.6511 19.3842 72.8833 19.3268 73.6795 19.1545C75.8343 18.6809 78.7852 17.712 79.7583 17.1522C80.2639 16.858 80.6051 16.5494 80.7315 16.2695C80.8389 16.0399 80.8262 15.5806 80.6872 14.9562C80.5419 14.2959 79.9163 13.7649 78.6399 13.1979C78.2292 13.0113 77.7363 12.7242 77.4393 12.4946C75.9986 11.375 75.6384 11.1382 74.8359 10.8152C73.926 10.4421 72.2514 10.1909 69.4142 10.0043L67.5818 9.88228L60.4414 10.2555C56.5173 10.4564 52.0688 10.6932 50.5586 10.7722C49.0483 10.8511 47.8098 10.9014 47.8035 10.8942C47.7972 10.8798 47.6518 10.4349 47.4749 9.90381C47.298 9.37273 46.5208 7.04032 45.7498 4.72943L44.347 0.523895L43.0137 0.258358C42.2744 0.114826 41.6425 0 41.5983 0C41.5351 0 41.5288 0.832493 41.5541 3.71034Z" fill="white"/>
</svg>
